<svg xmlns="http://www.w3.org/2000/svg" width="413" height="413" fill="none" viewBox="0 0 413 413">
  <path fill="#007FCF" d="M0 0h413v413H0z"/>
  <path fill="#fff" d="M127.8 339.552h-5.888v26.624h-10.944v-26.624H107v-9.088h3.968v-1.024c0-4.395 1.259-7.723 3.776-9.984 2.517-2.304 6.208-3.456 11.072-3.456.811 0 1.408.021 1.792.064v9.28c-2.091-.128-3.563.171-4.416.896-.853.725-1.28 2.027-1.28 3.904v.32h5.888v9.088Zm21.399 27.136c-3.499 0-6.656-.747-9.472-2.24-2.774-1.493-4.971-3.627-6.592-6.4-1.579-2.773-2.368-6.016-2.368-9.728 0-3.669.81-6.891 2.431-9.664 1.622-2.816 3.841-4.971 6.657-6.464 2.816-1.493 5.973-2.24 9.472-2.24 3.498 0 6.656.747 9.472 2.24 2.816 1.493 5.034 3.648 6.656 6.464 1.621 2.773 2.432 5.995 2.432 9.664 0 3.669-.832 6.912-2.496 9.728-1.622 2.773-3.862 4.907-6.72 6.4-2.816 1.493-5.974 2.24-9.472 2.24Zm0-9.472c2.09 0 3.861-.768 5.312-2.304 1.493-1.536 2.24-3.733 2.24-6.592 0-2.859-.726-5.056-2.176-6.592-1.408-1.536-3.158-2.304-5.248-2.304-2.134 0-3.904.768-5.312 2.304-1.408 1.493-2.112 3.691-2.112 6.592 0 2.859.682 5.056 2.048 6.592 1.408 1.536 3.157 2.304 5.248 2.304Zm35.438-20.8c1.28-1.963 2.88-3.499 4.8-4.608 1.92-1.152 4.053-1.728 6.4-1.728v11.584h-3.008c-2.731 0-4.779.597-6.144 1.792-1.366 1.152-2.048 3.2-2.048 6.144v16.576h-10.944v-35.712h10.944v5.952Zm51.695-5.952v35.712h-10.944v-4.864c-1.11 1.579-2.624 2.859-4.544 3.84-1.878.939-3.968 1.408-6.272 1.408-2.731 0-5.142-.597-7.232-1.792-2.091-1.237-3.712-3.008-4.864-5.312-1.152-2.304-1.728-5.013-1.728-8.128v-20.864h10.88v19.392c0 2.389.618 4.245 1.856 5.568 1.237 1.323 2.901 1.984 4.992 1.984 2.133 0 3.818-.661 5.056-1.984 1.237-1.323 1.856-3.179 1.856-5.568v-19.392h10.944Zm53.429-.384c4.437 0 7.957 1.344 10.56 4.032 2.645 2.688 3.968 6.421 3.968 11.2v20.864h-10.88v-19.392c0-2.304-.619-4.075-1.856-5.312-1.195-1.28-2.859-1.92-4.992-1.92-2.134 0-3.819.64-5.056 1.92-1.195 1.237-1.792 3.008-1.792 5.312v19.392h-10.88v-19.392c0-2.304-.619-4.075-1.856-5.312-1.195-1.28-2.859-1.92-4.992-1.92-2.134 0-3.819.64-5.056 1.92-1.195 1.237-1.792 3.008-1.792 5.312v19.392h-10.944v-35.712h10.944v4.48c1.109-1.493 2.56-2.667 4.352-3.52 1.792-.896 3.818-1.344 6.08-1.344 2.688 0 5.077.576 7.168 1.728 2.133 1.152 3.797 2.795 4.992 4.928 1.237-1.963 2.922-3.563 5.056-4.8 2.133-1.237 4.458-1.856 6.976-1.856Z"/>
  <path fill="#41C3FF" d="m255.437 291.478-27.635-37.155c-8.189 1.639-16.172 2.457-23.951 2.457-20.267 0-38.895-4.709-55.886-14.125-16.786-9.416-30.195-22.519-40.226-39.304C97.913 186.359 93 167.321 93 146.236s4.913-40.02 14.739-56.807c10.031-16.786 23.44-29.887 40.226-39.304C164.956 40.708 183.584 36 203.851 36c20.266 0 38.792 4.708 55.578 14.125 16.991 9.417 30.297 22.518 39.919 39.304 9.826 16.787 14.739 35.722 14.739 56.807 0 18.424-3.788 35.313-11.361 50.666-7.37 15.149-17.708 27.739-31.014 37.769L319 291.478h-63.563ZM146.736 146.236c0 19.038 5.118 34.289 15.354 45.753 10.44 11.258 24.36 16.889 41.761 16.889 17.195 0 30.911-5.731 41.146-17.196 10.44-11.464 15.661-26.612 15.661-45.446 0-19.038-5.221-34.186-15.661-45.445-10.235-11.464-23.951-17.196-41.146-17.196-17.401 0-31.321 5.63-41.761 16.889-10.236 11.259-15.354 26.51-15.354 45.752Z"/>
  <path fill="#fff" d="M229.819 147.158c0 14.535-11.783 26.32-26.319 26.32s-26.32-11.785-26.32-26.32c0-14.536 11.784-26.32 26.32-26.32s26.319 11.784 26.319 26.32Z"/>
</svg>
