<svg xmlns="http://www.w3.org/2000/svg" width="319" height="210" fill="none" viewBox="0 0 319 210">
  <g clip-path="url(#a)">
    <path fill="#fff" d="M137.888 103.376H132V130h-10.944v-26.624h-3.968v-9.088h3.968v-1.024c0-4.395 1.259-7.723 3.776-9.984 2.517-2.304 6.208-3.456 11.072-3.456.811 0 1.408.021 1.792.064v9.28c-2.091-.128-3.563.17-4.416.896-.853.725-1.28 2.027-1.28 3.904v.32h5.888v9.088Zm21.399 27.136c-3.499 0-6.656-.747-9.472-2.24-2.774-1.493-4.971-3.627-6.592-6.4-1.579-2.773-2.368-6.016-2.368-9.728 0-3.669.81-6.891 2.431-9.664 1.622-2.816 3.841-4.97 6.657-6.464 2.816-1.493 5.973-2.24 9.472-2.24 3.498 0 6.656.747 9.472 2.24 2.816 1.493 5.034 3.648 6.656 6.464 1.621 2.773 2.432 5.995 2.432 9.664 0 3.669-.832 6.912-2.496 9.728-1.622 2.773-3.862 4.907-6.72 6.4-2.816 1.493-5.974 2.24-9.472 2.24Zm0-9.472c2.09 0 3.861-.768 5.312-2.304 1.493-1.536 2.24-3.733 2.24-6.592 0-2.859-.726-5.056-2.176-6.592-1.408-1.536-3.158-2.304-5.248-2.304-2.134 0-3.904.768-5.312 2.304-1.408 1.493-2.112 3.691-2.112 6.592 0 2.859.682 5.056 2.048 6.592 1.408 1.536 3.157 2.304 5.248 2.304Zm35.438-20.8c1.28-1.963 2.88-3.499 4.8-4.608 1.92-1.152 4.053-1.728 6.4-1.728v11.584h-3.008c-2.731 0-4.779.597-6.144 1.792-1.366 1.152-2.048 3.2-2.048 6.144V130h-10.944V94.288h10.944v5.952Zm51.695-5.952V130h-10.944v-4.864c-1.11 1.579-2.624 2.859-4.544 3.84-1.878.939-3.968 1.408-6.272 1.408-2.731 0-5.142-.597-7.232-1.792-2.091-1.237-3.712-3.008-4.864-5.312-1.152-2.304-1.728-5.013-1.728-8.128V94.288h10.88v19.392c0 2.389.618 4.245 1.856 5.568 1.237 1.323 2.901 1.984 4.992 1.984 2.133 0 3.818-.661 5.056-1.984 1.237-1.323 1.856-3.179 1.856-5.568V94.288h10.944Zm53.429-.384c4.437 0 7.957 1.344 10.56 4.032 2.645 2.688 3.968 6.421 3.968 11.2V130h-10.88v-19.392c0-2.304-.619-4.075-1.856-5.312-1.195-1.28-2.859-1.92-4.992-1.92-2.134 0-3.819.64-5.056 1.92-1.195 1.237-1.792 3.008-1.792 5.312V130h-10.88v-19.392c0-2.304-.619-4.075-1.856-5.312-1.195-1.28-2.859-1.92-4.992-1.92-2.134 0-3.819.64-5.056 1.92-1.195 1.237-1.792 3.008-1.792 5.312V130h-10.944V94.288h10.944v4.48c1.109-1.493 2.56-2.667 4.352-3.52 1.792-.896 3.818-1.344 6.08-1.344 2.688 0 5.077.576 7.168 1.728 2.133 1.152 3.797 2.795 4.992 4.928 1.237-1.963 2.922-3.563 5.056-4.8 2.133-1.237 4.458-1.856 6.976-1.856Z"/>
    <path fill="#41C3FF" d="m78.68 170.8-12.6-16.94c-3.733.747-7.373 1.12-10.92 1.12-9.24 0-17.733-2.147-25.48-6.44-7.653-4.293-13.767-10.267-18.34-17.92-4.48-7.747-6.72-16.427-6.72-26.04s2.24-18.247 6.72-25.9c4.573-7.653 10.687-13.627 18.34-17.92 7.747-4.293 16.24-6.44 25.48-6.44 9.24 0 17.687 2.147 25.34 6.44 7.747 4.293 13.813 10.267 18.2 17.92 4.48 7.653 6.72 16.287 6.72 25.9 0 8.4-1.727 16.1-5.18 23.1-3.36 6.907-8.073 12.647-14.14 17.22l21.56 25.9H78.68Zm-49.56-66.22c0 8.68 2.333 15.633 7 20.86 4.76 5.133 11.107 7.7 19.04 7.7 7.84 0 14.093-2.613 18.76-7.84 4.76-5.227 7.14-12.133 7.14-20.72 0-8.68-2.38-15.587-7.14-20.72-4.667-5.227-10.92-7.84-18.76-7.84-7.933 0-14.28 2.567-19.04 7.7-4.667 5.133-7 12.087-7 20.86Z"/>
    <path fill="#fff" d="M67 105c0 6.627-5.373 12-12 12s-12-5.373-12-12 5.373-12 12-12 12 5.373 12 12Zm70.888-1.624H132V130h-10.944v-26.624h-3.968v-9.088h3.968v-1.024c0-4.395 1.259-7.723 3.776-9.984 2.517-2.304 6.208-3.456 11.072-3.456.811 0 1.408.021 1.792.064v9.28c-2.091-.128-3.563.17-4.416.896-.853.725-1.28 2.027-1.28 3.904v.32h5.888v9.088Zm21.399 27.136c-3.499 0-6.656-.747-9.472-2.24-2.774-1.493-4.971-3.627-6.592-6.4-1.579-2.773-2.368-6.016-2.368-9.728 0-3.669.81-6.891 2.431-9.664 1.622-2.816 3.841-4.97 6.657-6.464 2.816-1.493 5.973-2.24 9.472-2.24 3.498 0 6.656.747 9.472 2.24 2.816 1.493 5.034 3.648 6.656 6.464 1.621 2.773 2.432 5.995 2.432 9.664 0 3.669-.832 6.912-2.496 9.728-1.622 2.773-3.862 4.907-6.72 6.4-2.816 1.493-5.974 2.24-9.472 2.24Zm0-9.472c2.09 0 3.861-.768 5.312-2.304 1.493-1.536 2.24-3.733 2.24-6.592 0-2.859-.726-5.056-2.176-6.592-1.408-1.536-3.158-2.304-5.248-2.304-2.134 0-3.904.768-5.312 2.304-1.408 1.493-2.112 3.691-2.112 6.592 0 2.859.682 5.056 2.048 6.592 1.408 1.536 3.157 2.304 5.248 2.304Zm35.438-20.8c1.28-1.963 2.88-3.499 4.8-4.608 1.92-1.152 4.053-1.728 6.4-1.728v11.584h-3.008c-2.731 0-4.779.597-6.144 1.792-1.366 1.152-2.048 3.2-2.048 6.144V130h-10.944V94.288h10.944v5.952Zm51.695-5.952V130h-10.944v-4.864c-1.11 1.579-2.624 2.859-4.544 3.84-1.878.939-3.968 1.408-6.272 1.408-2.731 0-5.142-.597-7.232-1.792-2.091-1.237-3.712-3.008-4.864-5.312-1.152-2.304-1.728-5.013-1.728-8.128V94.288h10.88v19.392c0 2.389.618 4.245 1.856 5.568 1.237 1.323 2.901 1.984 4.992 1.984 2.133 0 3.818-.661 5.056-1.984 1.237-1.323 1.856-3.179 1.856-5.568V94.288h10.944Zm53.429-.384c4.437 0 7.957 1.344 10.56 4.032 2.645 2.688 3.968 6.421 3.968 11.2V130h-10.88v-19.392c0-2.304-.619-4.075-1.856-5.312-1.195-1.28-2.859-1.92-4.992-1.92-2.134 0-3.819.64-5.056 1.92-1.195 1.237-1.792 3.008-1.792 5.312V130h-10.88v-19.392c0-2.304-.619-4.075-1.856-5.312-1.195-1.28-2.859-1.92-4.992-1.92-2.134 0-3.819.64-5.056 1.92-1.195 1.237-1.792 3.008-1.792 5.312V130h-10.944V94.288h10.944v4.48c1.109-1.493 2.56-2.667 4.352-3.52 1.792-.896 3.818-1.344 6.08-1.344 2.688 0 5.077.576 7.168 1.728 2.133 1.152 3.797 2.795 4.992 4.928 1.237-1.963 2.922-3.563 5.056-4.8 2.133-1.237 4.458-1.856 6.976-1.856Z"/>
    <path fill="#41C3FF" d="m78.68 170.8-12.6-16.94c-3.733.747-7.373 1.12-10.92 1.12-9.24 0-17.733-2.147-25.48-6.44-7.653-4.293-13.767-10.267-18.34-17.92-4.48-7.747-6.72-16.427-6.72-26.04s2.24-18.247 6.72-25.9c4.573-7.653 10.687-13.627 18.34-17.92 7.747-4.293 16.24-6.44 25.48-6.44 9.24 0 17.687 2.147 25.34 6.44 7.747 4.293 13.813 10.267 18.2 17.92 4.48 7.653 6.72 16.287 6.72 25.9 0 8.4-1.727 16.1-5.18 23.1-3.36 6.907-8.073 12.647-14.14 17.22l21.56 25.9H78.68Zm-49.56-66.22c0 8.68 2.333 15.633 7 20.86 4.76 5.133 11.107 7.7 19.04 7.7 7.84 0 14.093-2.613 18.76-7.84 4.76-5.227 7.14-12.133 7.14-20.72 0-8.68-2.38-15.587-7.14-20.72-4.667-5.227-10.92-7.84-18.76-7.84-7.933 0-14.28 2.567-19.04 7.7-4.667 5.133-7 12.087-7 20.86Z"/>
    <path fill="#fff" d="M67 105c0 6.627-5.373 12-12 12s-12-5.373-12-12 5.373-12 12-12 12 5.373 12 12Z"/>
  </g>
  <defs>
    <clipPath id="a">
      <path fill="#fff" d="M0 0h319v210H0z"/>
    </clipPath>
  </defs>
</svg>
